# xmcd
#
# Track frame offsets: 
#        150
#        15900
#        45061
#        60501
#        78972
#        97773
#        107479
#        128237
#        139047
#        150836
#        165656
#        175669
#        190243
#        204376
#        229859
#        250790
#        272174
#        290906
#        307111
#        321993
#
# Disc length: 4466 seconds
#
# Revision: 2
# Processed by: cddbd v1.5.2PL0 Copyright (c) Steve Scherf et al.
# Submitted via: ExactAudioCopy v1.1
#
DISCID=fc117014
DTITLE=Alexis Korner - A New Generation Of Blues
DYEAR=1968
DGENRE=Blues
TTITLE0=Mary, Open The Door (stereo)
TTITLE1=Little Bitty Gal Blues (stereo)
TTITLE2=Baby Don't You Love Me (stereo)
TTITLE3=Go Down Sunshine (stereo)
TTITLE4=The Same For You (stereo)
TTITLE5=I'm Tore Down (stereo)
TTITLE6=In The Evening (stereo)
TTITLE7=Somethin' You Got (stereo)
TTITLE8=New Worried Blues (stereo)
TTITLE9=What's That Sound I Hear (stereo)
TTITLE10=A Flower (mono)
TTITLE11=Louisiana Blues (BBC 11-28-67 Rhythm and Blues) (mono)
TTITLE12=Corrina Corrina (BBC 11-28-67 Rhythm and Blues) (mono)
TTITLE13=The Love You Save (BBC 11-28-67 Rhythm and Blues) (mono)
TTITLE14=Operator (mono)
TTITLE15=Steal Away (stereo)
TTITLE16=Go Down Sunshine (BBC 03-19-69 Rhythm and Blues) (mono)
TTITLE17=Stump Blues (BBC 03-19-69 Rhythm and Blues) (mono)
TTITLE18=Sweet Home Chicago (BBC 03-19-69 Rhythm and Blues) (mono)
TTITLE19=Just The Blues (BBC 03-19-69 Rhythm and Blues) (mono)
EXTD=
EXTT0=
EXTT1=
EXTT2=
EXTT3=
EXTT4=
EXTT5=
EXTT6=
EXTT7=
EXTT8=
EXTT9=
EXTT10=
EXTT11=
EXTT12=
EXTT13=
EXTT14=
EXTT15=
EXTT16=
EXTT17=
EXTT18=
EXTT19=
PLAYORDER=
